<svg width="24" height="24" viewBox="0 0 24 24" fill="none" xmlns="http://www.w3.org/2000/svg">
<path d="M5.7677 9.89258C5.52799 9.89258 5.31492 9.98703 5.15512 10.1624C4.982 10.3379 4.9021 10.5537 4.9021 10.8101C4.9021 11.0665 4.982 11.2689 5.15512 11.4578C5.32824 11.6332 5.52799 11.7277 5.7677 11.7277C6.0074 11.7277 6.22047 11.6332 6.39359 11.4578C6.56671 11.2824 6.65993 11.0665 6.65993 10.8101C6.65993 10.5537 6.56671 10.3379 6.39359 10.1624C6.22047 9.97354 6.02072 9.89258 5.7677 9.89258Z" fill="#444444"/>
<path d="M13.2384 9.87891C12.9987 9.87891 12.7856 9.97336 12.6258 10.1488C12.4527 10.3242 12.3728 10.5401 12.3728 10.7964C12.3728 11.0528 12.4527 11.2552 12.6258 11.4441C12.7989 11.6195 12.9987 11.714 13.2384 11.714C13.4781 11.714 13.6912 11.6195 13.8643 11.4441C14.0374 11.2687 14.1306 11.0528 14.1306 10.7964C14.1306 10.5401 14.0374 10.3377 13.8643 10.1488C13.7045 9.95987 13.4914 9.87891 13.2384 9.87891Z" fill="#444444"/>
<path d="M18.2323 9.89258C17.9926 9.89258 17.7795 9.98703 17.6197 10.1624C17.4466 10.3379 17.3667 10.5537 17.3667 10.8101C17.3667 11.0665 17.4466 11.2689 17.6197 11.4578C17.7928 11.6332 17.9926 11.7277 18.2323 11.7277C18.472 11.7277 18.6851 11.6332 18.8582 11.4578C19.0313 11.2824 19.1245 11.0665 19.1245 10.8101C19.1245 10.5537 19.0313 10.3379 18.8582 10.1624C18.6851 9.97354 18.472 9.89258 18.2323 9.89258Z" fill="#444444"/>
<path d="M20.4429 3.22754H3.55704C2.2653 3.22754 1.19995 4.307 1.19995 5.61584V15.2905C1.19995 16.5994 2.2653 17.6788 3.55704 17.6788H10.1889C10.1889 17.6788 11.4673 21.2275 11.9334 21.2275C12.3995 21.2275 13.7844 17.6788 13.7844 17.6788H20.4429C21.7346 17.6788 22.8 16.5994 22.8 15.2905V5.61584C22.8 4.307 21.7346 3.22754 20.4429 3.22754ZM7.47221 12.1601C7.13929 12.5379 6.61993 12.6998 6.06062 12.6998C5.55457 12.6998 5.1817 12.5514 4.91536 12.3355H4.90205V12.6054H3.63694V7.00565H4.90205V9.15108H4.92868C5.27492 8.85423 5.72769 8.75977 6.26037 8.73279C6.71315 8.71929 7.19255 9.00265 7.48553 9.33998C7.76518 9.67731 7.97825 10.2036 7.97825 10.7838C7.97825 11.4179 7.81845 11.7823 7.47221 12.1601ZM10.2022 12.6593H8.91043C8.91043 12.6593 8.91043 9.71779 8.91043 9.19156C8.91043 8.39545 8.28454 8.28751 8.28454 8.28751V6.8977C8.28454 6.8977 10.0956 7.00565 10.2022 9.23204C10.2022 9.86622 10.2022 12.6593 10.2022 12.6593ZM15.2759 11.5934C15.1694 11.8497 15.0096 12.0656 14.7965 12.268C14.5967 12.4569 14.357 12.6054 14.0907 12.7133C13.8244 12.8212 13.5447 12.8752 13.2517 12.8752C12.9588 12.8752 12.6791 12.8212 12.4261 12.7133C12.1598 12.6054 11.9201 12.4569 11.7203 12.268C11.5072 12.0656 11.3474 11.8362 11.2409 11.5934C11.1344 11.3505 11.0811 11.0806 11.0811 10.7973C11.0811 10.5139 11.1344 10.2575 11.2409 10.0012C11.3474 9.75827 11.5072 9.52889 11.7203 9.32649C11.9334 9.13758 12.1598 8.98916 12.4261 8.88121C12.6924 8.77327 12.9721 8.71929 13.2517 8.71929C13.5447 8.71929 13.8244 8.77327 14.0907 8.88121C14.357 8.98916 14.5967 9.13758 14.7965 9.32649C15.0096 9.52889 15.1561 9.74478 15.2759 10.0012C15.3824 10.2575 15.4357 10.5139 15.4357 10.7973C15.4357 11.0806 15.3824 11.337 15.2759 11.5934ZM20.363 12.1466C20.363 13.1316 20.1765 13.7253 19.7504 14.1436C19.231 14.6428 18.4986 14.6698 17.886 14.5889V13.5769C18.4054 13.6308 19.1112 13.28 19.1112 12.6054V12.349H19.0979C18.8049 12.7538 18.3921 12.9022 17.8194 12.9022C17.3001 12.9022 16.8473 12.7133 16.541 12.349C16.2347 11.9847 16.0882 11.4989 16.0882 10.8917C16.0882 10.2036 16.2614 9.66382 16.5943 9.25902C16.9405 8.85423 17.4199 8.66532 17.9792 8.66532C18.472 8.66532 18.7916 8.78676 19.0979 9.07012H19.1112V8.75977H20.3763V12.1466H20.363Z" fill="#444444"/>
</svg>
